<mxfile host="drawio-plugin" agent="5.0 (Macintosh; Intel Mac OS X 10_15_7) AppleWebKit/537.36 (KHTML, like Gecko) Chrome/104.0.5112.102 Safari/537.36" modified="2024-07-13T07:11:12.221Z" version="20.5.3" etag="wtwWNRMpf5O4qaUk1HGe" type="embed"><diagram id="diagram_1" name="AWS components"><mxGraphModel dx="1992" dy="1684" grid="1" gridSize="10" guides="1" tooltips="1" connect="1" arrows="1" fold="1" page="1" pageScale="1" pageWidth="850" pageHeight="1100" math="0" shadow="1"><root><mxCell id="0"/><mxCell id="1" parent="0"/><mxCell id="edge:ecs_service:service1:to:ecs_service:service2" style="jettySize=auto;html=1;startArrow=none;endArrow=classic;" parent="1" source="vertex:ecs_service:service1" target="vertex:ecs_service:service2" edge="2"><mxGeometry as="geometry"/></mxCell><mxCell id="label:ecs_service:service1:to:ecs_service:service2" value="http" style="edgeLabel;html=1;align=left;verticalAlign=middle;resizable=0;points=[];labelBackgroundColor=none;" parent="edge:ecs_service:service1:to:ecs_service:service2" vertex="1" connectable="0"><mxGeometry relative="1" as="geometry"><mxPoint as="offset"/></mxGeometry></mxCell><mxCell id="edge:ecs_service:service1:to:dynamo:Table1" style="jettySize=auto;html=1;startArrow=none;endArrow=classic;" parent="1" source="vertex:ecs_service:service1" target="vertex:dynamo:Table1" edge="2"><mxGeometry as="geometry"/></mxCell><mxCell id="label:ecs_service:service1:to:dynamo:Table1" value="uses" style="edgeLabel;html=1;align=left;verticalAlign=middle;resizable=0;points=[];labelBackgroundColor=none;" parent="edge:ecs_service:service1:to:dynamo:Table1" vertex="1" connectable="0"><mxGeometry relative="1" as="geometry"><mxPoint as="offset"/></mxGeometry></mxCell><mxCell id="edge:ecs_service:service2:to:dynamo:Table2" style="jettySize=auto;html=1;startArrow=none;endArrow=classic;" parent="1" source="vertex:ecs_service:service2" target="vertex:dynamo:Table2" edge="2"><mxGeometry as="geometry"/></mxCell><mxCell id="label:ecs_service:service2:to:dynamo:Table2" value="uses" style="edgeLabel;html=1;align=left;verticalAlign=middle;resizable=0;points=[];labelBackgroundColor=none;" parent="edge:ecs_service:service2:to:dynamo:Table2" vertex="1" connectable="0"><mxGeometry relative="1" as="geometry"><mxPoint as="offset"/></mxGeometry></mxCell><mxCell id="edge:ecs_service:service2:to:dynamo:Table3" style="jettySize=auto;html=1;startArrow=none;endArrow=classic;" parent="1" source="vertex:ecs_service:service2" target="vertex:dynamo:Table3" edge="2"><mxGeometry as="geometry"/></mxCell><mxCell id="label:ecs_service:service2:to:dynamo:Table3" value="uses" style="edgeLabel;html=1;align=left;verticalAlign=middle;resizable=0;points=[];labelBackgroundColor=none;" parent="edge:ecs_service:service2:to:dynamo:Table3" vertex="1" connectable="0"><mxGeometry relative="1" as="geometry"><mxPoint as="offset"/></mxGeometry></mxCell><mxCell id="edge:ecs_service:service3:to:sqs:sqs1" style="jettySize=auto;html=1;startArrow=none;endArrow=classic;" parent="1" source="vertex:ecs_service:service3" target="vertex:sqs:sqs1" edge="2"><mxGeometry as="geometry"/></mxCell><mxCell id="label:ecs_service:service3:to:sqs:sqs1" value="sends" style="edgeLabel;html=1;align=left;verticalAlign=middle;resizable=0;points=[];labelBackgroundColor=none;" parent="edge:ecs_service:service3:to:sqs:sqs1" vertex="1" connectable="0"><mxGeometry relative="1" as="geometry"><mxPoint as="offset"/></mxGeometry></mxCell><mxCell id="edge:sqs:sqs1:to:ecs_service:service1" style="jettySize=auto;html=1;startArrow=none;endArrow=classic;" parent="1" source="vertex:sqs:sqs1" target="vertex:ecs_service:service1" edge="2"><mxGeometry as="geometry"/></mxCell><mxCell id="label:sqs:sqs1:to:ecs_service:service1" value="sends" style="edgeLabel;html=1;align=left;verticalAlign=middle;resizable=0;points=[];labelBackgroundColor=none;" parent="edge:sqs:sqs1:to:ecs_service:service1" vertex="1" connectable="0"><mxGeometry relative="1" as="geometry"><mxPoint as="offset"/></mxGeometry></mxCell><mxCell id="2" value="services" parent="0"/><mxCell id="vertex:ecs_service:service1" value="&lt;b&gt;Name&lt;/b&gt;: service1" style="sketch=0;outlineConnect=0;gradientColor=none;fillColor=#D45B07;strokeColor=none;dashed=0;verticalLabelPosition=bottom;verticalAlign=top;align=left;html=1;fontSize=12;fontStyle=0;aspect=fixed;pointerEvents=1;shape=mxgraph.aws4.ecs_service;" parent="2" vertex="1"><mxGeometry x="-220" y="-130" width="39" height="48" as="geometry"/></mxCell><mxCell id="vertex:ecs_service:service2" value="&lt;b&gt;Name&lt;/b&gt;: service2" style="sketch=0;outlineConnect=0;gradientColor=none;fillColor=#D45B07;strokeColor=none;dashed=0;verticalLabelPosition=bottom;verticalAlign=top;align=left;html=1;fontSize=12;fontStyle=0;aspect=fixed;pointerEvents=1;shape=mxgraph.aws4.ecs_service;" parent="2" vertex="1"><mxGeometry x="-40" y="-130" width="39" height="48" as="geometry"/></mxCell><mxCell id="vertex:ecs_service:service3" value="&lt;b&gt;Name&lt;/b&gt;: service3" style="sketch=0;outlineConnect=0;gradientColor=none;fillColor=#D45B07;strokeColor=none;dashed=0;verticalLabelPosition=bottom;verticalAlign=top;align=left;html=1;fontSize=12;fontStyle=0;aspect=fixed;pointerEvents=1;shape=mxgraph.aws4.ecs_service;" parent="2" vertex="1"><mxGeometry x="-520" y="-294" width="39" height="48" as="geometry"/></mxCell><mxCell id="3" value="data" parent="0"/><mxCell id="vertex:dynamo:Table1" value="&lt;b&gt;Name&lt;/b&gt;: Table1" style="outlineConnect=0;dashed=0;verticalLabelPosition=bottom;verticalAlign=top;align=left;html=1;shape=mxgraph.aws3.dynamo_db;fillColor=#2E73B8;gradientColor=none;" parent="3" vertex="1"><mxGeometry x="-380" y="-50" width="72" height="81" as="geometry"/></mxCell><mxCell id="vertex:dynamo:Table2" value="&lt;b&gt;Name&lt;/b&gt;: Table2" style="outlineConnect=0;dashed=0;verticalLabelPosition=bottom;verticalAlign=top;align=left;html=1;shape=mxgraph.aws3.dynamo_db;fillColor=#2E73B8;gradientColor=none;" parent="3" vertex="1"><mxGeometry x="10" y="120" width="72" height="81" as="geometry"/></mxCell><mxCell id="vertex:dynamo:Table3" value="&lt;b&gt;Name&lt;/b&gt;: Table3" style="outlineConnect=0;dashed=0;verticalLabelPosition=bottom;verticalAlign=top;align=left;html=1;shape=mxgraph.aws3.dynamo_db;fillColor=#2E73B8;gradientColor=none;" parent="3" vertex="1"><mxGeometry x="-150" y="120" width="72" height="81" as="geometry"/></mxCell><mxCell id="4" value="streaming" parent="0"/><mxCell id="vertex:sqs:sqs1" value="&lt;b&gt;Name&lt;/b&gt;: sqs1" style="sketch=0;outlineConnect=0;gradientColor=#FF4F8B;gradientDirection=north;fillColor=#BC1356;strokeColor=#ffffff;dashed=0;verticalLabelPosition=bottom;verticalAlign=top;align=left;html=1;fontSize=12;fontStyle=0;aspect=fixed;shape=mxgraph.aws4.resourceIcon;resIcon=mxgraph.aws4.sqs;" parent="4" vertex="1"><mxGeometry x="-300" y="-310" width="78" height="78" as="geometry"/></mxCell></root></mxGraphModel></diagram></mxfile>